<svg width="170" height="47" viewBox="0 0 170 47" fill="none" xmlns="http://www.w3.org/2000/svg"><path d="M89.822 39.434h7.544V18.576l-7.544 7.566v13.292zm0-39.434v11.646l-5.778 5.796v-.001L73.117 28.406c-.025.024-.053.046-.079.07l-.004-.005a12.034 12.034 0 0 1-8.475 3.49c-6.675 0-12.102-5.445-12.102-12.138 0-.45.029-.891.077-1.328l-6.825 6.842.003.007-.801.801v20.856h7.544V35.314a19.474 19.474 0 0 0 12.104 4.213c5.416 0 10.328-2.21 13.884-5.778l.008.007 18.915-18.979V0h-7.544zM56.026 11.212a12.055 12.055 0 0 1 8.533-3.528c6.672 0 12.1 5.445 12.1 12.139 0 .443-.027.88-.074 1.311l6.819-6.835C81.013 6.116 73.477.119 64.559.119c-4.567 0-8.764 1.584-12.104 4.215V0H44.91v11.648l-9.367 9.396-7.341 7.362c-.273.274-.561.527-.855.769-.014.013-.031.024-.047.037-.258.213-.523.41-.795.598-.077.054-.157.106-.236.158-.212.14-.426.269-.644.393-.115.066-.228.131-.342.194-.035.017-.066.038-.098.054l-.003-.006a11.995 11.995 0 0 1-5.537 1.357c-6.674 0-12.102-5.444-12.102-12.137 0-6.694 5.428-12.139 12.102-12.139 6.671 0 12.1 5.445 12.1 12.139 0 .443-.027.88-.073 1.31l7.617-7.64V0h-7.544v4.332c-3.34-2.63-7.535-4.214-12.1-4.214C8.813.118 0 8.957 0 19.822 0 30.69 8.813 39.527 19.646 39.527c4.57 0 8.766-1.587 12.1-4.223v4.13h7.544V27.987l6.325-6.344 10.411-10.43z" fill="#39B54A"/><path d="M125.682 17.95l-1.556-3.66h-7.775a8.865 8.865 0 0 1-.281.627c-.317.764-.784 1.86-1.119 2.643l-.166.389h-3.369L119.009 0h2.451l7.592 17.95h-3.37zm-2.899-6.775c-.886-2.112-1.663-3.95-2.569-6.095-.141.348-.283.693-.424 1.038a96.339 96.339 0 0 1-1.217 2.905 73.168 73.168 0 0 1-.883 2.153h5.093zM149.456 0h-3.152v17.95h3.152V0zM138.21 0l-4.438.004V0h-3.148v17.95h3.148v-6.642h4.438c3.204 0 5.622-2.43 5.622-5.654 0-3.17-2.469-5.654-5.622-5.654zm-.017 8.19h-4.421V3.134h4.438c1.445 0 2.494 1.06 2.494 2.52 0 1.47-1.055 2.536-2.511 2.536zm-19.808 17.241a6.918 6.918 0 0 0-3.819 1.146v-5.164h-3.15v18.024h3.15v-1.173a6.918 6.918 0 0 0 3.819 1.147c3.85 0 6.97-3.13 6.97-6.99 0-3.86-3.12-6.99-6.97-6.99zm0 10.81a3.814 3.814 0 0 1-3.809-3.82c0-2.11 1.706-3.82 3.809-3.82a3.812 3.812 0 0 1 3.808 3.82c0 2.11-1.703 3.82-3.808 3.82zm47.622 3.191l-4.601-5.99v5.995h-3.122V21.413h3.159v9.61l3.996-5.639h3.921l-4.927 6.882L170 39.432h-3.993zm-28.29-14.048v1.193a6.92 6.92 0 0 0-3.821-1.146c-3.849 0-6.969 3.13-6.969 6.99 0 3.86 3.12 6.99 6.969 6.99a6.92 6.92 0 0 0 3.821-1.146v1.172h3.15V25.384h-3.15zm-3.821 10.858a3.814 3.814 0 0 1-3.809-3.82 3.814 3.814 0 0 1 3.809-3.82 3.813 3.813 0 0 1 3.809 3.82 3.813 3.813 0 0 1-3.809 3.82zm15.68-10.858a6.136 6.136 0 0 0-3.052.813v-.813h-3.149v14.053h3.149v-7.9c.036-1.66 1.387-3.003 3.052-3.003a3.066 3.066 0 0 1 3.057 3.067v7.835h3.142v-7.835c0-3.429-2.781-6.217-6.199-6.217z" fill="#fff"/></svg>