<svg height="300" viewBox="0 0 512 512" width="300" xmlns="http://www.w3.org/2000/svg" version="1.1" xmlns:xlink="http://www.w3.org/1999/xlink" xmlns:svgjs="http://svgjs.dev/svgjs"><g width="100%" height="100%" transform="matrix(1,0,0,1,0,0)"><path d="m258.308594 432.304688c-57.824219 18.957031-113.257813 11.121093-148.285156-20.96875-18.15625-16.636719-30.464844-38.980469-36.144532-64.910157l22.5 22.496094 21.277344-21.277344-64.472656-64.476562-50.53125 73.410156 24.789062 17.066406 16.390625-23.8125c6.652344 33.238281 22.308594 62.117188 45.863281 83.691407 28.078126 25.722656 66.050782 39.042968 107.96875 39.042968 22.511719 0 46.160157-3.84375 70.019532-11.667968zm0 0" fill="#45a049" fill-opacity="1" data-original-color="#3e5959ff" stroke="none" stroke-opacity="1"/><path d="m480.039062 144.558594-14.457031 21.003906c-5.617187-36.414062-21.644531-67.84375-46.984375-91.058594-22.132812-20.277344-50.574218-33.332031-82.246094-37.753906-29.996093-4.183594-63.035156-.664062-95.539062 10.175781l9.523438 28.550781c28.125-9.382812 56.429687-12.46875 81.855468-8.917968 25.972656 3.625 48.207032 13.761718 66.078125 30.136718 21.152344 19.375 34.203125 46.339844 38.175781 77.921876l-25.339843-25.335938-21.277344 21.277344 64.472656 64.476562 50.53125-73.410156zm0 0" fill="#45a049" fill-opacity="1" data-original-color="#3e5959ff" stroke="none" stroke-opacity="1"/><path d="m145.859375 0c-80.425781 0-145.859375 65.433594-145.859375 145.859375s65.433594 145.859375 145.859375 145.859375 145.855469-65.433594 145.855469-145.859375-65.429688-145.859375-145.855469-145.859375zm0 0" fill="#ffffff" fill-opacity="1" data-original-color="#ffee26ff" stroke="none" stroke-opacity="1"/><path d="m89.691406 433.523438c28.078125 25.722656 66.050782 39.042968 107.972656 39.042968 22.507813 0 46.160157-3.84375 70.019532-11.667968l-9.375-28.59375c-57.824219 18.957031-113.257813 11.121093-148.285156-20.96875-1.628907-1.492188-3.195313-3.046876-4.730469-4.632813l-21.28125 21.28125c1.847656 1.890625 3.726562 3.75 5.679687 5.539063zm0 0" fill="#4caf50" fill-opacity="1" data-original-color="#384949ff" stroke="none" stroke-opacity="1"/><path d="m480.039062 144.558594-14.457031 21.003906c-4.886719-31.671875-17.652343-59.574219-37.566406-81.578125l-21.332031 21.332031c16.207031 18.4375 26.347656 42.15625 29.761718 69.300782l-25.339843-25.339844-21.277344 21.28125 64.472656 64.476562 50.53125-73.414062zm0 0" fill="#4caf50" fill-opacity="1" data-original-color="#384949ff" stroke="none" stroke-opacity="1"/><path d="m366.140625 220.285156c-80.425781 0-145.859375 65.429688-145.859375 145.859375 0 80.425781 65.433594 145.855469 145.859375 145.855469s145.859375-65.429688 145.859375-145.859375c0-80.425781-65.429688-145.855469-145.859375-145.855469zm0 0" fill="#ffffff" fill-opacity="1" data-original-color="#ffee26ff" stroke="none" stroke-opacity="1"/><path d="m145.859375 0v291.714844c80.425781 0 145.855469-65.429688 145.855469-145.855469 0-80.429687-65.429688-145.859375-145.855469-145.859375zm0 0" fill="#aaaaaa" fill-opacity="1" data-original-color="#fdbf00ff" stroke="none" stroke-opacity="1"/><path d="m366.140625 220.285156v291.714844c80.429687 0 145.859375-65.429688 145.859375-145.859375 0-80.425781-65.429688-145.855469-145.859375-145.855469zm0 0" fill="#aaaaaa" fill-opacity="1" data-original-color="#fdbf00ff" stroke="none" stroke-opacity="1"/><path d="m152.628906 192.089844c-7.351562 0-13.476562-5.289063-14.804687-12.261719h21.953125v-30.09375h-22.222656v-10.035156h22.222656v-30.09375h-21.679688c1.746094-6.394531 7.589844-11.117188 14.53125-11.117188 8.3125 0 15.074219 6.761719 15.074219 15.074219h30.097656c0-24.90625-20.265625-45.167969-45.171875-45.167969-23.570312 0-42.972656 18.152344-44.988281 41.210938h-14.847656v30.09375h14.664062v10.035156h-14.664062v30.09375h14.761719c1.460937 23.601563 21.113281 42.355469 45.074218 42.355469 24.90625 0 45.167969-20.265625 45.167969-45.171875h-30.09375c0 8.3125-6.761719 15.078125-15.074219 15.078125zm0 0" fill="#2d3249" fill-opacity="1" data-original-color="#fc652cff" stroke="none" stroke-opacity="1"/><path d="m368.4375 351.09375h-4.589844c-3.464844 0-6.285156-2.816406-6.285156-6.28125s2.820312-6.28125 6.285156-6.28125h4.589844c3.464844 0 6.285156 2.816406 6.285156 6.28125h30.09375c0-15.574219-9.839844-28.886719-23.625-34.0625v-21.050781h-30.09375v21.050781c-13.789062 5.175781-23.625 18.488281-23.625 34.0625 0 20.058594 16.316406 36.375 36.375 36.375h4.59375c3.460938 0 6.28125 2.820312 6.28125 6.28125 0 3.464844-2.820312 6.285156-6.28125 6.285156h-4.59375c-3.464844 0-6.28125-2.820312-6.28125-6.285156h-30.097656c0 15.574219 9.839844 28.886719 23.625 34.066406v21.046875h30.097656v-21.046875c13.785156-5.179687 23.625-18.492187 23.625-34.066406 0-20.054688-16.320312-36.375-36.378906-36.375zm0 0" fill="#2d3249" fill-opacity="1" data-original-color="#fc652cff" stroke="none" stroke-opacity="1"/><g fill="#ed3a1b"><path d="m145.859375 149.734375h13.914063v30.09375h-13.914063zm0 0" fill="#202434" fill-opacity="1" data-original-color="#ed3a1bff" stroke="none" stroke-opacity="1"/><path d="m152.628906 98.488281c8.3125 0 15.074219 6.761719 15.074219 15.074219h30.097656c0-24.90625-20.265625-45.167969-45.171875-45.167969-2.300781 0-4.5625.175781-6.769531.511719v31.207031c2.035156-1.03125 4.332031-1.625 6.769531-1.625zm0 0" fill="#202434" fill-opacity="1" data-original-color="#ed3a1bff" stroke="none" stroke-opacity="1"/><path d="m145.859375 109.605469h13.914063v30.09375h-13.914063zm0 0" fill="#202434" fill-opacity="1" data-original-color="#ed3a1bff" stroke="none" stroke-opacity="1"/><path d="m152.628906 192.089844c-2.4375 0-4.734375-.59375-6.769531-1.625v31.207031c2.207031.335937 4.46875.511719 6.769531.511719 24.90625 0 45.171875-20.265625 45.171875-45.171875h-30.097656c0 8.3125-6.761719 15.078125-15.074219 15.078125zm0 0" fill="#202434" fill-opacity="1" data-original-color="#ed3a1bff" stroke="none" stroke-opacity="1"/><path d="m368.4375 338.53125c3.464844 0 6.285156 2.816406 6.285156 6.28125h30.09375c0-15.570312-9.839844-28.886719-23.625-34.0625v-21.046875h-15.046875v48.828125zm0 0" fill="#202434" fill-opacity="1" data-original-color="#ed3a1bff" stroke="none" stroke-opacity="1"/><path d="m368.4375 351.09375h-2.296875v30.097656h2.296875c3.464844 0 6.285156 2.816406 6.285156 6.28125 0 3.460938-2.820312 6.28125-6.285156 6.28125h-2.296875v48.832032h15.050781v-21.050782c13.785156-5.175781 23.625-18.488281 23.625-34.0625 0-20.058594-16.320312-36.378906-36.378906-36.378906zm0 0" fill="#202434" fill-opacity="1" data-original-color="#ed3a1bff" stroke="none" stroke-opacity="1"/></g></g></svg>