<svg width="414" height="48" viewBox="0 0 414 48" fill="none" xmlns="http://www.w3.org/2000/svg">
<path d="M24.0085 0C10.7513 0 0 10.7513 0 23.9915C0 37.2317 10.7344 48 24.0085 48C37.2825 48 48 37.2487 48 23.9915C48 10.7344 37.2656 0 24.0085 0Z" fill="#230078"/>
<path d="M2.42114 31.4413L10.9375 16.6772H17.7778L9.24442 31.4413H2.42114ZM24.0084 31.4074C19.7587 31.4074 16.3217 27.9873 16.3217 23.7376C16.3217 22.3492 16.6942 21.0286 17.3545 19.9111L19.2169 16.6942H26.0402L22.4677 22.8571C22.3153 23.1111 22.2307 23.4328 22.2307 23.7376C22.2307 24.7196 23.0264 25.5153 24.0084 25.5153C24.9905 25.5153 25.7862 24.7196 25.7862 23.7376C25.7862 22.8741 25.1598 22.146 24.3471 22.0106L27.3439 16.8127C29.9174 18.0487 31.6952 20.6899 31.6952 23.7376C31.6952 27.9873 28.2582 31.4074 24.0254 31.4074H24.0084Z" fill="white"/>
<path d="M57.1768 12.0042H62.9334L73.0244 29.5788H73.109V12.0042H77.6127V35.9957H71.9069L61.8159 18.3364H61.7482V35.9957H57.1768V12.0042Z" fill="#63666A"/>
<path d="M80.8466 12.0042H85.655V32.0168H94.6286V35.9957H80.8466V12.0042Z" fill="#63666A"/>
<path d="M97.6423 12.0042H107.733C110.832 12.0042 115.471 12.9015 115.471 18.1502C115.471 20.9608 113.558 22.9925 110.696 23.5174V23.5851C113.964 23.8899 116.317 26.1079 116.317 29.0539C116.317 34.929 110.883 35.9957 107.869 35.9957H97.6423V12.0042ZM102.4 21.638H106.006C108.038 21.638 110.544 21.0454 110.544 18.5565C110.544 15.7798 108.106 15.5936 105.905 15.5936H102.4V21.638ZM102.4 32.2708H106.548C108.783 32.2708 111.39 31.7967 111.39 29.0031C111.39 25.8708 108.952 25.329 106.548 25.329H102.4V32.2539V32.2708Z" fill="#63666A"/>
<path d="M126.104 12.072H129.524V22.6032L139.733 12.072H144.288L133.046 23.3821L145.185 35.9958H140.174L129.507 24.2794V35.9958H126.087V12.072H126.104Z" fill="#63666A"/>
<path d="M153.668 18.0996C158.984 18.0996 162.54 21.943 162.54 27.2594C162.54 32.271 158.9 36.4192 153.668 36.4192C148.436 36.4192 144.762 32.271 144.762 27.2594C144.762 21.943 148.334 18.0996 153.668 18.0996ZM153.668 33.7948C157.443 33.7948 159.12 30.3578 159.12 27.2425C159.12 23.9239 157.105 20.6901 153.668 20.6901C150.231 20.6901 148.182 23.907 148.182 27.2425C148.182 30.3578 149.858 33.7948 153.668 33.7948Z" fill="#63666A"/>
<path d="M165.638 18.506H168.652V21.0456H168.72C169.956 19.0308 171.699 18.0996 174.273 18.0996C176.288 18.0996 178.32 19.1324 179.251 21.4859C180.453 18.98 183.094 18.0996 184.669 18.0996C189.122 18.0996 190.73 20.9779 190.73 24.7874V35.9959H187.513V25.5663C187.513 23.3991 187.005 20.6901 184.398 20.6901C181.113 20.6901 179.809 23.907 179.809 27.1747V35.979H176.593V25.5493C176.593 23.3821 176.085 20.6732 173.477 20.6732C170.193 20.6732 168.889 23.8901 168.889 27.1578V35.962H165.672V18.4721L165.638 18.506Z" fill="#63666A"/>
<path d="M208.356 35.2679C207.12 35.7081 205.714 36.4023 202.836 36.4023C196.622 36.4023 193.778 32.6266 193.778 26.9377C193.778 21.7568 197.029 18.0996 201.973 18.0996C207.797 18.0996 209.693 22.3493 209.693 27.9705H197.215C197.215 31.4245 199.924 33.7948 202.971 33.7948C205.105 33.7948 207.56 32.6943 208.356 32.0509V35.2679ZM206.256 25.5663C206.256 22.8911 204.682 20.6901 201.905 20.6901C198.756 20.6901 197.452 23.2975 197.215 25.5663H206.273H206.256Z" fill="#63666A"/>
<path d="M212.639 18.506H215.653V21.215H215.721C216.584 19.4033 218.43 18.0996 220.275 18.0996C221.24 18.0996 221.714 18.2012 222.408 18.3366V21.215C221.833 20.9779 221.172 20.9102 220.631 20.9102C217.752 20.9102 215.873 23.653 215.873 28.0382V35.9959H212.656V18.506H212.639Z" fill="#63666A"/>
<path d="M235.547 21.4518C234.311 20.9439 233.075 20.6899 232.059 20.6899C228.453 20.6899 226.438 23.9069 226.438 27.2423C226.438 30.3577 228.114 33.7947 232.263 33.7947C233.363 33.7947 234.734 33.4561 235.733 32.7957L235.97 35.6741C234.633 36.2836 233.092 36.4021 231.924 36.4021C226.641 36.4021 223.018 32.2539 223.018 27.2423C223.018 21.9259 226.591 18.0825 231.924 18.0825C233.228 18.0825 234.904 18.3873 235.835 18.7767L235.564 21.4518H235.547Z" fill="#63666A"/>
<path d="M242.641 14.5948H239.001V10.9546H242.641V14.5948ZM239.221 18.5059H242.438V35.9959H239.221V18.5059Z" fill="#63666A"/>
<path d="M243.505 40.6858C243.911 40.7535 244.182 40.7874 244.808 40.7874C246.315 40.7874 247.111 39.3482 247.111 37.0795V18.5059H250.328V36.6054C250.328 39.1451 250.227 43.598 245.384 43.598C244.69 43.598 243.843 43.5641 243.403 43.4625L243.505 40.6858ZM250.531 14.5948H246.891V10.9546H250.531V14.5948Z" fill="#63666A"/>
<path d="M255.153 19.7419C256.762 18.7769 258.692 18.0996 260.91 18.0996C265.922 18.0996 267.936 20.5716 267.936 25.3292V32.5589C267.936 34.5398 268.004 35.471 268.072 35.9959H265.058V33.7271H264.99C264.229 34.7938 262.518 36.4023 259.572 36.4023C255.797 36.4023 253.156 34.7599 253.156 30.9504C253.156 26.5652 257.947 25.1938 261.283 25.1938C262.552 25.1938 263.45 25.1938 264.703 25.2615C264.703 22.2478 263.602 20.707 260.385 20.707C258.574 20.707 256.609 21.3843 255.306 22.4848L255.136 19.7419H255.153ZM264.72 27.6657C264.025 27.6657 263.348 27.598 262.654 27.598C260.91 27.598 256.593 27.8689 256.593 30.9504C256.593 32.7959 258.37 33.7948 259.843 33.7948C263.026 33.7948 264.72 31.8139 264.72 29.2065V27.6657Z" fill="#63666A"/>
<path d="M272.169 10.2773H275.386V35.9959H272.169V10.2773Z" fill="#63666A"/>
<path d="M279.636 18.506H282.751V21.2827H282.819C283.784 19.3017 286.104 18.0996 288.542 18.0996C293.062 18.0996 295.094 20.9102 295.094 25.6001V35.9959H291.877V26.9377C291.877 22.8573 290.98 20.8763 288.169 20.6901C284.495 20.6901 282.853 23.6361 282.853 27.8859V35.979H279.636V18.489V18.506Z" fill="#63666A"/>
<path d="M299.869 19.7419C301.477 18.7769 303.407 18.0996 305.625 18.0996C310.637 18.0996 312.652 20.5716 312.652 25.3292V32.5589C312.652 34.5398 312.72 35.471 312.787 35.9959H309.774V33.7271H309.706C308.944 34.7938 307.234 36.4023 304.288 36.4023C300.512 36.4023 297.871 34.7599 297.871 30.9504C297.871 26.5652 302.662 25.1938 305.998 25.1938C307.268 25.1938 308.165 25.1938 309.418 25.2615C309.418 22.2478 308.318 20.707 305.101 20.707C303.289 20.707 301.325 21.3843 300.021 22.4848L299.852 19.7419H299.869ZM309.435 27.6657C308.741 27.6657 308.064 27.598 307.369 27.598C305.625 27.598 301.308 27.8689 301.308 30.9504C301.308 32.7959 303.086 33.7948 304.559 33.7948C307.742 33.7948 309.435 31.8139 309.435 29.2065V27.6657Z" fill="#63666A"/>
<path d="M326.265 10.2773H329.481V20.9101H329.549C330.548 19.3017 332.292 18.0996 335.34 18.0996C340.419 18.0996 342.874 22.2477 342.874 26.9377C342.874 31.6276 340.639 36.4022 335.374 36.4022C332.258 36.4022 330.26 34.8276 329.414 33.5239H329.346V35.9959H326.265V10.2773ZM334.662 20.707C331.175 20.707 329.481 24.0255 329.481 27.2932C329.481 30.2054 330.988 33.8117 334.629 33.8117C338.269 33.8117 339.539 29.9345 339.454 27.1916C339.522 24.0424 338.15 20.707 334.662 20.707Z" fill="#63666A"/>
<path d="M346.836 19.7419C348.444 18.7769 350.375 18.0996 352.593 18.0996C357.604 18.0996 359.619 20.5716 359.619 25.3292V32.5589C359.619 34.5398 359.687 35.471 359.755 35.9959H356.741V33.7271H356.673C355.911 34.7938 354.201 36.4023 351.255 36.4023C347.479 36.4023 344.838 34.7599 344.838 30.9504C344.838 26.5652 349.63 25.1938 352.965 25.1938C354.235 25.1938 355.132 25.1938 356.385 25.2615C356.385 22.2478 355.285 20.707 352.068 20.707C350.256 20.707 348.292 21.3843 346.988 22.4848L346.819 19.7419H346.836ZM356.402 27.6657C355.708 27.6657 355.031 27.598 354.337 27.598C352.593 27.598 348.275 27.8689 348.275 30.9504C348.275 32.7959 350.053 33.7948 351.526 33.7948C354.709 33.7948 356.402 31.8139 356.402 29.2065V27.6657Z" fill="#63666A"/>
<path d="M363.53 18.506H366.645V21.2827H366.713C367.678 19.3017 369.998 18.0996 372.436 18.0996C376.957 18.0996 378.988 20.9102 378.988 25.6001V35.9959H375.771V26.9377C375.771 22.8573 374.874 20.8763 372.063 20.6901C368.389 20.6901 366.747 23.6361 366.747 27.8859V35.979H363.53V18.489V18.506Z" fill="#63666A"/>
<path d="M382.764 10.2773H385.981V25.6001L393.007 18.5059H397.393L389.266 26.2604L398.425 35.9959H393.803L385.981 27.0054V35.9959H382.764V10.2773Z" fill="#63666A"/>
<path d="M400.762 19.7419C402.37 18.7769 404.301 18.0996 406.519 18.0996C411.53 18.0996 413.545 20.5716 413.545 25.3292V32.5589C413.545 34.5398 413.613 35.471 413.68 35.9959H410.667V33.7271H410.599C409.837 34.7938 408.127 36.4023 405.181 36.4023C401.405 36.4023 398.764 34.7599 398.764 30.9504C398.764 26.5652 403.556 25.1938 406.891 25.1938C408.161 25.1938 409.058 25.1938 410.311 25.2615C410.311 22.2478 409.211 20.707 405.994 20.707C404.182 20.707 402.218 21.3843 400.914 22.4848L400.745 19.7419H400.762ZM410.328 27.6657C409.651 27.6657 408.957 27.598 408.279 27.598C406.535 27.598 402.218 27.8689 402.218 30.9504C402.218 32.7959 403.996 33.7948 405.469 33.7948C408.652 33.7948 410.345 31.8139 410.345 29.2065V27.6657H410.328Z" fill="#63666A"/>
</svg>
