<svg viewBox="0 0 2433 488" xmlns="http://www.w3.org/2000/svg" fill-rule="evenodd" clip-rule="evenodd" stroke-linejoin="round" stroke-miterlimit="2"><path d="M236.66 402.732c-101.987-9.746-192.245-58.696-225.687-115.167 1.738 10.588 13.804 33.717 19.33 48.959 4.028 11.158 9.874 20.245 12.608 28.437 42.22 29.888 90.666 45.496 157.27 51.859 68.659 6.55 129.034-1.85 176.65-24.584-41.779 10.633-87.804 15.475-140.17 10.496M157.182 197.39c-35.105-38.167-66.63-76.733-93.93-114.333A371.833 371.833 0 0051.09 99.91c-6.004 8.767-10.838 16.992-14.488 23.83 26.863 29.432 56.625 59.14 88.875 88.3 91.9 83.116 181.446 137.058 253.005 175.97-64.509-47.475-142.705-105.262-221.3-190.62M302.27 129.96c-26.243-52.237-46.78-86.82-77.022-127.39-3.92.416-10.516 3.72-22.125 5.533-8.7 1.375-17.537.475-24.579 3.295 44.096 46.288 79.67 94.717 118.8 164.405 44.521 79.233 66.85 142.433 85.6 208.529-7.95-76.113-31.192-155.863-80.675-254.371" fill="#ffd400" fill-rule="nonzero"/><path d="M259.357 483.524c-127.559 0-230.959-99.984-230.959-223.342 0-123.354 102.767-219.767 230.334-219.767 125.07 0 227.541 92.55 231.47 212.584.121-3.084.196-6.196.196-9.309C490.398 109.09 380.623.003 245.202.003 109.786.003-.002 109.09-.002 243.69c0 134.563 109.788 243.65 245.204 243.65 26.4 0 51.813-4.166 75.634-11.829a239.185 239.185 0 01-61.48 8.013" fill="#005a9e" fill-rule="nonzero"/><path d="M127.236 140.59c87.412-89.104 223.4-95.858 303.737-15.075 49.067 49.354 68.555 123.796 51.788 187.642 22.72-75.971 8.812-162.08-48.883-220.1-84.509-84.984-227.021-79.654-314.438 9.475-57.563 58.691-78.25 139.92-61.538 212.825-2.404-61.213 20.954-125.45 69.334-174.767" fill="#b51e82" fill-rule="nonzero"/><path d="M478.378 265.707c-.721-53.625-21.217-103.225-58.913-129.175-72.904-50.159-186.163-10.925-256.763 92.183-36.55 53.384-53.612 112.4-51.529 163.88-16.167-60.363-2.85-135.171 41.525-199.988C223.311 89.498 345.686 50.757 426.07 106.06c47.613 32.754 70.746 91.62 66.238 155.238 0 0-1.438 18.337-3.154 26.341-1.63 7.6-5.846 24.075-7.521 28.925-1.663 4.821-3.254-50.858-3.254-50.858" fill="#009066" fill-rule="nonzero"/><path d="M236.098 234.544c-71.991 76.342-88.287 177.896-36.383 226.838a85.523 85.523 0 007.204 6.088c-45.696-45.696-31.97-133.205 31.25-201.492 58.092-62.796 156.95-90.238 204.788-45.104 42.175 39.77 36.529 116.129-9.734 180.67 64.105-74.95 76.8-169.82 27.184-216.591-51.904-48.938-152.334-26.734-224.309 49.591" fill="#f36f21" fill-rule="nonzero"/><path d="M303.294 312.353c-48.462 42.104-64.67 102.783-36.192 135.579 22.313 25.68 65.425 26.6 106.346 5.538-34.412 15.85-69.92 13.908-88.841-7.875-25.263-29.071-11.425-82.442 30.87-119.205 42.334-36.754 97.1-42.996 122.346-13.908 18.934 21.783 15.925 57.204-4.6 89.067 26.555-37.571 31.671-80.396 9.371-106.067-28.47-32.775-90.85-25.238-139.3 16.87M746.307 197.773h-27.342l-16.02 75.417h28.279c17.283 0 26.712-3.77 33.62-11 9.43-9.737 15.084-23.566 15.084-36.766 0-17.909-9.742-27.65-33.621-27.65m36.45 90.187c-18.225 11.313-33.625 14.77-56.563 14.77h-29.537l-17.596 82.643h-36.45l46.504-217.138h56.563c26.712 0 42.737 4.083 53.42 11.312 12.884 8.8 19.797 22.938 19.797 38.655 0 32.362-14.767 56.246-36.138 69.758M908.178 272.774c-2.775-1.663-5.55-2.221-9.708-2.221-9.705 0-20.521 7.496-32.721 24.687l-19.138 90.13h-30.229l19.967-93.738c4.158-19.133 3.883-29.675 1.108-39.383l28.292-11.646c3.046 7.212 4.158 17.75 2.212 27.458 12.763-16.087 28.292-26.346 41.88-26.346 4.991 0 7.487.554 11.645 2.217l-13.308 28.842zM983.316 265.011c-27.738 0-42.155 44.37-42.155 76.263 0 16.92 8.042 24.408 21.63 24.408 27.179 0 41.879-41.6 41.879-75.713 0-18.858-8.875-24.958-21.354-24.958M957.245 388.7c-31.059 0-48.809-18.03-48.809-50.196 0-54.08 33.004-96.788 79.592-96.788 32.17 0 49.646 18.584 49.646 49.363 0 51.308-28.846 97.62-80.43 97.62M1214.474 205.315c-9.737-8.8-21.367-12.254-35.192-12.254-19.17 0-36.766 10.367-49.65 27.02-17.912 22.943-28.283 66.622-28.283 93.013 0 31.113 15.712 47.455 43.992 47.455 14.458 0 26.712-4.713 42.42-14.771l12.888 23.883c-20.108 13.196-41.48 19.483-65.046 19.483-46.192 0-73.533-29.225-73.533-77.304 0-34.883 13.2-76.67 35.512-104.329 22.309-27.963 54.988-43.046 87.042-43.046 21.05 0 39.904 6.6 50.592 17.28l-20.742 23.57zM1312.553 272.774c-2.775-1.663-5.546-2.221-9.708-2.221-9.704 0-20.52 7.496-32.72 24.687l-19.143 90.13h-30.225l19.967-93.738c4.163-19.133 3.883-29.675 1.108-39.383l28.292-11.646c3.046 7.212 4.158 17.75 2.217 27.458 12.758-16.087 28.287-26.346 41.879-26.346 4.992 0 7.487.554 11.646 2.217l-13.313 28.842zM1388.25 264.457c-15.81 0-29.676 12.48-35.78 38.83 1.667 0 7.487.828 12.208.828 16.913 0 28.559-2.496 35.217-9.154 3.604-3.604 5.825-8.042 5.825-13.867 0-9.429-4.717-16.637-17.47-16.637m35.77 43.817c-11.646 11.37-30.783 17.745-59.625 17.745-7.767 0-14.417-1.108-16.913-1.108-.554 2.775-1.662 10.263-1.662 14.7 0 17.475 10.258 25.792 25.508 25.792 14.7 0 26.63-4.992 39.659-15.254l9.433 18.858c-16.92 13.592-33.558 19.967-57.133 19.967-29.95 0-49.917-18.021-49.917-51.3 0-28.013 12.2-58.242 31.337-76.821 13.867-13.317 29.396-19.138 47.421-19.138 27.18 0 44.375 12.48 44.375 37.438 0 11.37-4.437 21.358-12.483 29.12M1528.562 267.507c-8.88 0-18.859 4.437-25.517 12.754-11.37 13.87-19.133 41.05-19.133 60.188 0 15.25 5.541 23.291 16.912 23.291 11.646 0 26.904-10.262 35.5-24.958l14.146-65.725c-5.825-3.883-11.65-5.55-21.908-5.55m38.82 69.058c-6.374 29.675-5.266 38.546-1.383 45.204l-26.07 6.096c-3.605-4.433-5.826-11.362-5.267-20.241-10.817 13.312-25.238 20.525-41.325 20.525-28.009 0-41.321-16.642-41.321-48.255 0-28.012 11.092-57.966 30.787-77.379 13.309-13.033 30.78-19.691 46.867-19.691 12.48 0 22.183 1.941 26.904 4.441 0-1.391 2.492-14.146 3.6-18.858l9.984-47.15 29.12 4.991-31.895 150.317zM1653.345 224.799c-11.096 0-20.25-9.15-20.25-20.25a20.48 20.48 0 0120.525-20.521c11.092 0 19.967 9.154 19.967 20.246 0 11.375-8.875 20.525-20.242 20.525m-23.02 160.57h-31.063l29.396-138.662 31.896-4.713-30.23 143.375zM1752.054 266.678h-26.9l-15.805 75.429c-1.112 5.275-1.666 9.987-1.666 13.592 0 8.875 4.158 11.65 13.037 11.65 4.434 0 9.704-.834 14.138-2.775v18.862c-9.704 3.875-19.409 5.821-29.113 5.821-18.858 0-29.4-9.433-29.4-23.57 0-4.997.554-12.21 1.942-19.143l16.917-79.866h-15.805l4.434-21.634h15.808c2.775-12.754 5.55-23.57 9.15-34.112l32.45-7.488c-3.883 11.925-8.596 28.292-11.37 41.6h33.553l-11.37 21.634zM1929.112 198.715h-30.17l-12.25 59.08h31.42c13.517 0 21.683-2.517 27.97-7.546 7.855-6.284 13.51-15.709 13.51-27.655 0-15.708-7.538-23.879-30.48-23.879m-16.654 88.93h-32.054l-14.459 68.187h34.571c12.88 0 22.309-3.454 29.538-8.483 9.425-6.6 16.654-20.113 16.654-33.625 0-17.284-8.488-26.08-34.25-26.08m39.28-17.287c22.932 4.404 34.57 22 34.57 43.683 0 16.025-7.863 35.821-23.567 50.592-16.35 15.083-33.629 20.742-69.77 20.742h-69.13l46.513-217.138h67.866c41.163 0 60.971 17.912 60.971 47.133 0 23.571-14.775 45.88-47.454 54.988M2088.183 265.84c-12.48 0-21.346 2.775-32.17 15.53-12.48 14.979-18.305 42.158-18.305 61.845 0 15.254 5 21.08 15.25 21.08 12.767 0 26.908-12.759 33.292-26.905l14.975-68.775c-2.78-1.666-8.33-2.775-13.042-2.775m38.83 18.584l-11.376 55.466c-3.604 16.917-1.933 24.13 5 31.617l-24.962 18.575c-7.492-6.096-10.534-13.863-10.534-23.017-9.987 13.592-24.129 21.634-42.158 21.634-21.908 0-36.608-14.7-36.608-44.65 0-31.059 11.645-61.013 29.675-79.592 14.975-15.254 33.279-22.742 55.737-22.742 16.084 0 32.454 3.33 43.542 10.534-2.496 7.77-6.375 22.187-8.317 32.175M2274.804 284.982l-21.346 100.392h-30.237l19.687-92.905c1.396-6.104 1.946-10.541 1.946-13.591 0-8.042-3.604-11.092-11.096-11.092-9.975 0-23.854 6.933-38.542 26.067l-19.412 91.52h-29.954l20.516-97.066c3.325-16.358 3.613-25.792.559-36.054l28.291-11.646c2.767 6.379 4.438 16.637 2.492 26.346 13.308-16.084 31.063-24.959 50.475-24.959 17.471 0 28.004 10.813 28.004 27.734 0 4.712-.275 10.537-1.383 15.254M2373.233 306.053l42.154 77.379-34.112 3.88-39.1-82.088 57.962-62.675 32.721 5.541-59.625 57.963zm-15.808-76.267l-33.28 155.588h-30.5l32.992-155.03c3.892-17.75 4.442-31.616 2.221-40.212l31.621-10.542c2.492 7.767 2.217 25.517-3.054 50.196" fill="#da2128" fill-rule="nonzero"/></svg>
