<svg xmlns="http://www.w3.org/2000/svg" width="211" height="32" viewBox="0 0 211 32" fill="none">
  <path d="M27.52 1.37906C24.8229 7.91502 21.2716 14.5372 16.9917 21.0294V31.478H10.4437V21.0294C6.20604 14.5372 2.65352 7.91502 0 1.37906H7.40471C8.81726 5.50653 10.9137 9.72139 13.7388 13.8489C16.5204 9.72139 18.7039 5.50653 20.1587 1.37906H27.52ZM43.5135 22.2762H28.7476C29.3035 24.8134 31.2296 26.4898 33.755 26.4898C35.5953 26.4898 37.0078 25.8015 38.4204 24.2537L42.658 27.5217C40.6462 30.661 37.1794 31.9939 33.4988 31.9939C27.5067 31.9939 22.3712 28.0813 22.3712 20.5997C22.3712 14.1074 26.7369 9.46282 32.9853 9.46282C40.39 9.46282 44.3703 15.2243 43.5135 22.2762ZM37.2652 18.2774C37.0936 16.2137 35.5965 14.536 33.0711 14.536C30.6314 14.536 29.1331 16.0838 28.7488 18.2774H37.2652ZM55.1088 26.1463C53.4401 26.1463 52.5411 25.2868 52.5411 23.5666V15.3967H58.2758V9.97876H52.5411V4.47466L46.2069 5.7214V24.5985C46.2069 29.3718 49.1178 31.9939 53.6974 31.9939C56.0948 31.9939 58.5767 31.1344 60.0316 30.1451L58.1055 25.1144C57.1195 25.7165 56.0924 26.1463 55.1088 26.1463ZM70.1224 26.1463C68.4537 26.1463 67.5547 25.2868 67.5547 23.5666V15.3967H73.2895V9.97876H67.5547V4.47466L61.2206 5.7214V24.5985C61.2206 29.3718 64.1315 31.9939 68.7111 31.9939C71.1084 31.9939 73.5903 31.1344 75.0452 30.1451L73.1191 25.1144C72.1343 25.7165 71.1072 26.1463 70.1224 26.1463ZM96.3241 22.2762H81.5581C82.114 24.8134 84.0401 26.4898 86.5655 26.4898C88.4058 26.4898 89.8184 25.8015 91.2309 24.2537L95.4686 27.5217C93.4567 30.661 89.9899 31.9939 86.3093 31.9939C80.3172 31.9939 75.1817 28.0813 75.1817 20.5997C75.1817 14.1074 79.5475 9.46282 85.7958 9.46282C93.2005 9.46282 97.1808 15.2243 96.3241 22.2762ZM90.0757 18.2774C89.9041 16.2137 88.407 14.536 85.8816 14.536C83.4419 14.536 81.9436 16.0838 81.5593 18.2774H90.0757ZM99.0162 31.478H105.35V0.131107L99.0162 1.37784V31.478ZM111.96 24.0971C109.854 24.0971 108.049 25.9108 108.049 28.0704C108.049 30.1863 109.854 32 111.96 32C114.11 32 115.915 30.1863 115.915 28.0704C115.915 25.9108 114.11 24.0971 111.96 24.0971ZM142.212 22.6282C142.212 26.6015 139.504 31.4816 131.939 31.4816H118.613V1.25159H131.895C138.257 1.25159 141.18 5.69954 141.18 9.67284C141.18 12.6094 139.933 14.5954 137.914 15.9781C141.008 17.4895 142.212 20.2537 142.212 22.6282ZM125.017 13.5599H130.477C133.27 13.5599 134.561 12.0049 134.561 10.1487C134.561 8.33505 133.271 6.73748 130.863 6.73748H125.017V13.5599ZM135.506 22.3697C135.506 20.21 134.045 18.7848 131.379 18.7848H125.017V25.997H131.336C134.088 25.997 135.506 24.5293 135.506 22.3697ZM164.822 18.1803V31.4816H159.836L159.535 29.7105C157.772 31.308 155.494 31.9988 153.001 31.9988C147.843 31.9988 144.447 29.1047 144.447 24.9165C144.447 20.6847 147.413 17.4883 153.388 17.4883C155.193 17.4883 156.869 17.6607 158.589 18.309C158.33 15.4586 156.138 14.6816 153.775 14.6816C150.981 14.6816 149.132 15.5885 147.369 16.4953L145.091 11.7014C148.401 9.9302 151.497 9.36935 154.291 9.36935C159.363 9.37056 164.822 11.4865 164.822 18.1803ZM158.461 22.3259C157.386 21.9375 156.183 21.5915 154.678 21.5915C152.443 21.5915 150.853 22.6282 150.853 24.5718C150.853 26.2992 152.314 27.4659 154.206 27.4659C156.484 27.4659 158.332 25.9545 158.418 23.234L158.461 22.3259ZM180.47 9.37056C177.677 9.37056 175.011 10.6234 173.678 12.6531L173.335 9.88892H167.489V31.4816H173.851V20.4698C173.851 16.2804 175.786 15.0288 177.935 15.0288C179.998 15.0288 181.933 16.2379 181.933 19.6492V31.4816H188.251V18.0504C188.251 12.0486 184.941 9.37056 180.47 9.37056ZM202.842 19.4331C205.464 17.447 208.688 13.7323 209.59 9.88892H203.228C202.196 12.437 199.532 15.5035 197.339 17.2734V0L190.978 1.25159V31.4816H197.34V22.6719C200.693 23.7948 203.186 27.336 204.132 31.5253H210.666C209.676 27.1636 207.398 21.9375 202.842 19.4331Z" fill="#002340"/>
</svg>